<?xml version="1.0" encoding="UTF-8"?><svg id="Capa_2" xmlns="http://www.w3.org/2000/svg" xmlns:xlink="http://www.w3.org/1999/xlink" viewBox="0 0 517.99 629.35"><defs><style>.cls-1{fill:beige;}.cls-2{fill:#4b6f44;}.cls-3{fill:url(#Degradado_sin_nombre_64);}.cls-4{fill:url(#Degradado_sin_nombre_64-2);}</style><linearGradient id="Degradado_sin_nombre_64" x1="4.32" y1="314.67" x2="517.99" y2="314.67" gradientUnits="userSpaceOnUse"><stop offset=".5" stop-color="beige"/><stop offset=".5" stop-color="#4b6f44"/></linearGradient><linearGradient id="Degradado_sin_nombre_64-2" x1="72.17" x2="382.15" xlink:href="#Degradado_sin_nombre_64"/></defs><g id="Capa_1-2"><path class="cls-3" d="M315.26,577.73l30.5-19.99,31.65-21.25c1.53-1.03,4.74-3.06,4.74-5.52l-.22-400.61-.23-25.29c-.14-15.77.47-31.37.15-47.24-.28-14.03.65-22.51-.03-36.59l-.74-15.42c-6.22,2.84-10.17,5.55-15.16,8.89l-51.69,34.54-26.37,17.35-14.42,9.75-21.35,13.92-19.95,12.76-32.4-20.52-57.1-37.38-18.96-12.89L86.84,7.88l-10.39-6.5c-.9-.56-2.16-1.31-2.92-1.38-.61-.05-1.29,1.89-1.29,2.73l-.06,522.18c5.79,4.89,12.02,8.31,18.12,12.36l17.69,11.76,32.34,21.4c.59.39,1.71.72,2.24.62s1.45-1.69,1.47-2.25l.63-15.21c.44-10.67-.21-20.45-.21-31.28l-.19-266.74-.19-108.61,35.69,24.22c5.06,3.43,9.77,6.76,14.72,10.82l-.04,422.74c6.47,5.58,13.49,9.73,20.31,14.44l13.9,9.6c2.12,1.47,4.44-.25,6.39-1.53,9.47-6.2,18.83-12.07,28.14-19.21l.04-424.69,45.99-31.79-.02,428c2.82,1.01,3.98-.45,6.1-1.84ZM45.38,360.56l15.17,9.38c.41.25,2.07.4,2.36.03s.71-1.53.71-2.12l-.25-86.32-.02-21.84-.05-81.03-.46-169.46c0-1.28-.73-2.79-1.56-3.28L19.65,31.88c-5.36,3.35-10.28,6.15-15.3,10.22l-.03,291.68c3.27,3.22,6.65,5.4,10.37,7.71l30.69,19.06ZM479.16,254.09l28.06-52.08c6.5-.4,10.11-4.88,10.34-10.78.19-5.17-4.17-9.82-9.7-9.91-5.96-.9-7.79,5.59-9.59,9.28l-31.1,17.45-5.25-40.37c2.12-3.08,4.81-6.87,3.31-11.4-.97-2.91-3.43-6.47-7.87-7.13-3.53-.52-7.09,1.52-8.85,3.95-2.16,2.98-2.04,6.88-1.02,10.5l-22.47,32.78-19.99-31.79c.89-3.62,1.27-7.59-1.17-10.56-1.66-2.02-4.82-4.22-8.14-3.95-4.74.39-8.03,4.31-8.68,8.3-.7,4.3,1.06,8.68,5.18,11.12l.53,8.39.85,28.48,85.59,47.71ZM517.13,365.68l.03-77.44-44.12-25.25-.35,99.46-18.73,12.28-20.55-15.01-.06-117.65-26.17-15.73c-5.01-3.01-9.8-5.67-15.64-8.5l-.1,172.58,39.47,24.07-.02,94.24,46.86-27.32.15-67.46,38.93-23,.62-5.53c.65-6.56.89-12.66-.32-19.74Z"/><path class="cls-1" d="M0,435.71v-10.06c.09-.03.81-1.3.9-1.9,1.37-8.72,8.2-17.5,15.32-21.2,9.64-5.02,19.78-4.88,28.73.06,10.51,5.8,16.32,16.83,16.2,28.47s-6.12,22.38-16.72,27.97c-9.08,4.79-19.19,4.71-28.71-.51-9.24-5.07-13.29-13.96-15.72-22.82Z"/><path class="cls-4" d="M315.26,577.73c-2.13,1.4-3.28,2.85-6.1,1.84l.02-428-45.99,31.79-.04,424.69c-9.31,7.13-18.66,13-28.14,19.21-1.95,1.28-4.26,3-6.39,1.53l-13.9-9.6c-6.81-4.71-13.84-8.86-20.31-14.44l.04-422.74c-4.95-4.05-9.66-7.39-14.72-10.82l-35.69-24.22.19,108.61.19,266.74c0,10.83.65,20.62.21,31.28l-.63,15.21c-.02.56-.94,2.15-1.47,2.25s-1.65-.23-2.24-.62l-32.34-21.4-17.69-11.76c-6.1-4.06-12.32-7.47-18.12-12.36l.06-522.18c0-.84.69-2.78,1.29-2.73.76.07,2.02.82,2.92,1.38l10.39,6.5,36.84,24.35,18.96,12.89,57.1,37.38,32.4,20.52,19.95-12.76,21.35-13.92,14.42-9.75,26.37-17.35,51.69-34.54c4.99-3.34,8.94-6.06,15.16-8.89l.74,15.42c.67,14.08-.26,22.57.03,36.59.32,15.87-.29,31.47-.15,47.24l.23,25.29.22,400.61c0,2.46-3.21,4.5-4.74,5.52l-31.65,21.25-30.5,19.99Z"/><path class="cls-1" d="M45.38,360.56l-30.69-19.06c-3.72-2.31-7.1-4.5-10.37-7.71l.03-291.68c5.02-4.07,9.94-6.87,15.3-10.22L61.3,5.91c.83.5,1.56,2.01,1.56,3.28l.46,169.46.05,81.03.02,21.84.25,86.32c0,.59-.42,1.75-.71,2.12s-1.95.23-2.36-.03l-15.17-9.38Z"/><path class="cls-2" d="M517.13,365.68c1.2,7.08.97,13.18.32,19.74l-.62,5.53-38.93,23-.15,67.46-46.86,27.32.02-94.24-39.47-24.07.1-172.58c5.84,2.83,10.63,5.48,15.64,8.5l26.17,15.73.06,117.65,20.55,15.01,18.73-12.28.35-99.46,44.12,25.25-.03,77.44Z"/><path class="cls-2" d="M479.16,254.09l-85.59-47.71-.85-28.48-.53-8.39c-4.12-2.44-5.88-6.82-5.18-11.12.65-3.99,3.95-7.91,8.68-8.3,3.32-.27,6.48,1.93,8.14,3.95,2.44,2.97,2.06,6.94,1.17,10.56l19.99,31.79,22.47-32.78c-1.01-3.63-1.14-7.52,1.02-10.5,1.76-2.43,5.32-4.48,8.85-3.95,4.44.66,6.9,4.22,7.87,7.13,1.51,4.53-1.19,8.32-3.31,11.4l5.25,40.37,31.1-17.45c1.8-3.69,3.63-10.18,9.59-9.28,5.53.08,9.89,4.74,9.7,9.91-.22,5.9-3.84,10.37-10.34,10.78l-28.06,52.08Z"/></g></svg>