<?xml version="1.0" encoding="UTF-8"?>
<svg version="1.1" xmlns="http://www.w3.org/2000/svg" width="50" height="50">
<path d="M0 0 C16.5 0 33 0 50 0 C50 15.18 50 30.36 50 46 C33.5 46 17 46 0 46 C0 30.82 0 15.64 0 0 Z M3 2 C2.67 3.65 2.34 5.3 2 7 C17.18 7 32.36 7 48 7 C47.505 4.525 47.505 4.525 47 2 C32.48 2 17.96 2 3 2 Z M2 9 C2 20.55 2 32.1 2 44 C17.18 44 32.36 44 48 44 C48 32.45 48 20.9 48 9 C32.82 9 17.64 9 2 9 Z " fill="#000000" transform="translate(0,2)"/>
<path d="M0 0 C3.375 1 3.375 1 4.8125 3.0625 C5.0909375 4.0215625 5.0909375 4.0215625 5.375 5 C2.735 4.67 0.095 4.34 -2.625 4 C-2.955 6.31 -3.285 8.62 -3.625 11 C-1.975 11 -0.325 11 1.375 11 C1.375 10.01 1.375 9.02 1.375 8 C2.695 8 4.015 8 5.375 8 C4.45210056 11.18819807 3.89237898 12.66440282 1.0625 14.5 C-1.625 15 -1.625 15 -4.375 13.6875 C-6.625 12 -6.625 12 -7.625 11 C-7.98773601 7.15499829 -8.13862559 4.82180094 -6.0625 1.5 C-3.625 0 -3.625 0 0 0 Z " fill="#000000" transform="translate(14.625,17)"/>
<path d="M0 0 C0.99 0 1.98 0 3 0 C3.83986084 1.93467942 4.67168027 3.87285129 5.5 5.8125 C6.19609375 7.43091797 6.19609375 7.43091797 6.90625 9.08203125 C8 12 8 12 8 15 C7.01 15 6.02 15 5 15 C4.16013916 13.06532058 3.32831973 11.12714871 2.5 9.1875 C2.0359375 8.10855469 1.571875 7.02960937 1.09375 5.91796875 C0 3 0 3 0 0 Z " fill="#000000" transform="translate(24,17)"/>
<path d="M0 0 C0.99 0 1.98 0 3 0 C3 1.32 3 2.64 3 4 C2.01 4 1.02 4 0 4 C0 2.68 0 1.36 0 0 Z " fill="#000000" transform="translate(21,21)"/>
<path d="M0 0 C0.99 0 1.98 0 3 0 C3 0.99 3 1.98 3 3 C2.01 3 1.02 3 0 3 C0 2.01 0 1.02 0 0 Z " fill="#000000" transform="translate(21,28)"/>
</svg>
